<?xml version="1.0" standalone="no"?>
<!DOCTYPE svg PUBLIC "-//W3C//DTD SVG 20010904//EN"
 "http://www.w3.org/TR/2001/REC-SVG-20010904/DTD/svg10.dtd">
<svg version="1.0" xmlns="http://www.w3.org/2000/svg"
 width="640.000000pt" height="1280.000000pt" viewBox="0 0 640.000000 1280.000000"
 preserveAspectRatio="xMidYMid meet">
<metadata>
Created by potrace 1.15, written by Peter Selinger 2001-2017
</metadata>
<g transform="translate(0.000000,1280.000000) scale(0.100000,-0.100000)"
fill="#FFFFFF" stroke="none">
<path d="M2986 12779 c-128 -17 -297 -45 -321 -53 -7 -3 -7 -46 0 -140 9 -124
9 -136 -6 -136 -18 0 -29 20 -29 51 0 61 -111 82 -170 33 -81 -69 -79 -175 4
-239 31 -24 43 -27 87 -23 58 6 69 14 78 60 5 23 13 34 28 36 19 3 22 -3 27
-50 6 -53 26 -301 26 -319 0 -5 -11 -9 -25 -9 -20 0 -25 6 -31 38 -10 57 -29
72 -90 72 -42 0 -59 -5 -85 -27 -60 -51 -74 -122 -36 -186 41 -68 105 -93 171
-67 18 6 28 21 36 50 9 35 14 40 40 40 28 0 30 -3 31 -37 0 -21 6 -107 12
-190 l13 -153 -22 0 c-18 0 -22 7 -27 42 -7 49 -22 63 -78 72 -91 15 -173 -87
-147 -181 15 -56 79 -113 126 -113 56 0 85 20 98 65 9 31 15 39 30 37 10 -2
21 -5 23 -7 2 -2 9 -68 15 -147 l12 -143 70 -127 70 -128 -2 -442 c-2 -244 -5
-501 -8 -573 -3 -71 -8 -344 -11 -605 -3 -261 -8 -502 -10 -535 -2 -33 -7
-278 -10 -545 -3 -267 -8 -512 -10 -545 -3 -33 -7 -280 -10 -550 -6 -519 -10
-616 -29 -627 -6 -4 -39 -8 -73 -8 -34 0 -144 -7 -245 -15 -839 -71 -1203
-252 -1295 -644 -15 -63 -18 -121 -18 -341 1 -297 8 -366 66 -655 55 -273 69
-383 69 -571 0 -284 -43 -452 -236 -925 -47 -118 -122 -300 -165 -406 -267
-655 -362 -1082 -329 -1483 65 -808 534 -1243 1485 -1379 283 -40 422 -46
1115 -46 693 0 832 6 1115 46 688 98 1114 349 1332 784 161 319 200 745 111
1190 -58 289 -141 526 -432 1230 -280 675 -306 875 -196 1510 17 99 40 232 51
295 27 152 35 337 20 426 -32 187 -185 365 -353 410 -118 31 -272 8 -425 -65
-76 -36 -109 -57 -250 -154 -75 -51 -152 -77 -226 -77 -89 0 -128 14 -186 66
-106 95 -160 287 -161 567 0 65 -4 126 -9 135 -5 9 -14 287 -20 617 -6 330
-13 722 -16 870 -3 149 -10 502 -15 785 -5 283 -15 794 -21 1135 -6 341 -10
731 -8 868 2 136 1 248 -3 250 -4 1 26 62 66 135 l73 133 11 140 c6 78 12 142
14 144 2 2 12 5 22 7 16 2 23 -7 35 -41 17 -48 35 -59 93 -60 74 -2 148 96
134 174 -14 72 -89 131 -154 119 -49 -9 -69 -28 -77 -75 -5 -29 -11 -39 -26
-39 -23 0 -23 7 -7 223 l12 158 30 -3 c25 -2 32 -8 34 -30 4 -37 46 -68 92
-68 98 0 171 121 125 209 -26 52 -71 81 -124 81 -60 0 -82 -16 -90 -66 -5 -33
-10 -39 -34 -42 -15 -2 -27 0 -27 5 0 4 7 87 15 183 8 96 15 178 15 183 0 4
11 7 25 7 20 0 25 -5 25 -25 0 -42 41 -75 93 -75 35 0 51 6 81 33 75 65 77
157 5 222 -33 30 -46 35 -87 35 -60 0 -79 -14 -90 -65 -5 -27 -14 -41 -26 -43
-18 -4 -18 2 -12 104 4 60 9 123 12 139 l5 31 -133 22 c-341 57 -432 61 -652
31z"/>
</g>
</svg>
