<?xml version="1.0" standalone="no"?>
<!DOCTYPE svg PUBLIC "-//W3C//DTD SVG 20010904//EN"
 "http://www.w3.org/TR/2001/REC-SVG-20010904/DTD/svg10.dtd">
<svg version="1.0" xmlns="http://www.w3.org/2000/svg"
 width="640.000000pt" height="1280.000000pt" viewBox="0 0 640.000000 1280.000000"
 preserveAspectRatio="xMidYMid meet">
<metadata>
Created by potrace 1.15, written by Peter Selinger 2001-2017
</metadata>
<g transform="translate(0.000000,1280.000000) scale(0.100000,-0.100000)"
fill="#000000" stroke="none">
<path d="M2320 12789 c-13 -6 -40 -22 -59 -36 -30 -23 -37 -25 -66 -15 -50 19
-109 15 -139 -9 -14 -11 -26 -27 -26 -34 0 -8 -9 -19 -20 -25 -25 -13 -25 -32
0 -229 21 -165 20 -171 -27 -171 -15 0 -23 6 -23 16 0 25 -65 84 -93 84 -55 0
-137 -85 -137 -143 0 -78 72 -157 144 -157 45 0 93 42 102 89 5 26 11 31 35
31 32 0 29 10 54 -193 9 -70 13 -132 10 -137 -3 -6 -17 -10 -30 -10 -19 0 -28
9 -39 34 -14 35 -59 66 -93 66 -29 0 -82 -37 -103 -72 -57 -93 13 -228 119
-228 42 0 101 55 101 94 0 22 4 26 30 26 34 0 34 0 50 -140 6 -52 13 -112 17
-132 5 -37 5 -38 -26 -38 -17 0 -31 4 -31 10 0 5 -14 25 -31 45 -26 29 -38 35
-70 35 -32 0 -48 -7 -81 -38 -37 -35 -42 -45 -45 -93 -6 -72 18 -116 80 -148
40 -20 50 -22 81 -11 44 14 76 53 76 91 0 25 4 29 29 29 34 0 30 14 62 -245
l21 -180 82 -85 c98 -100 182 -212 236 -313 l40 -73 30 -420 c16 -230 48 -678
69 -994 22 -316 45 -636 51 -710 6 -74 37 -520 70 -990 33 -470 64 -909 70
-974 5 -65 7 -123 4 -128 -8 -13 -48 -9 -72 8 -13 9 -41 38 -63 66 l-39 50
-34 -35 c-41 -44 -57 -100 -65 -232 l-6 -100 -55 -7 c-836 -110 -1192 -329
-1335 -824 -50 -173 -69 -306 -69 -479 0 -194 11 -237 141 -540 103 -242 137
-342 158 -459 19 -110 19 -141 0 -250 -22 -123 -85 -291 -236 -623 -192 -423
-244 -558 -300 -776 -96 -381 -77 -715 57 -1005 124 -269 398 -554 707 -734
109 -63 402 -197 512 -233 208 -68 460 -102 685 -91 167 7 266 23 542 87 488
112 852 231 1119 365 420 209 780 604 960 1051 90 223 129 413 136 661 8 266
-16 382 -118 585 -69 137 -124 224 -319 502 -258 368 -323 480 -381 650 -22
63 -24 86 -23 235 0 142 6 205 44 455 40 267 44 306 44 485 0 226 -15 307 -83
445 -90 180 -295 346 -526 423 -147 49 -264 65 -482 64 l-192 0 -5 26 c-3 15
-8 52 -11 82 -3 30 -28 269 -55 530 -27 261 -51 506 -54 543 -3 38 -8 72 -10
76 -3 4 -7 55 -10 113 -3 58 -8 112 -11 120 -8 22 -173 1615 -174 1681 0 21
-3 42 -6 46 -4 7 -86 773 -135 1265 -6 60 -18 139 -26 175 -26 111 -1 250 57
312 l30 33 -26 108 -27 108 30 35 c47 53 59 104 38 159 -19 50 -76 96 -119 96
-23 0 -28 6 -37 43 -6 23 -12 46 -14 52 -1 5 8 18 21 28 54 43 73 145 36 195
-28 37 -66 63 -103 71 -31 6 -34 11 -52 75 l-19 68 26 24 c30 28 55 82 55 120
0 64 -72 144 -130 144 -24 0 -27 7 -68 162 -45 173 -60 201 -117 217 -17 4
-52 5 -78 1 -43 -6 -49 -4 -74 23 -48 51 -108 68 -163 46z"/>
</g>
</svg>
