<?xml version="1.0" standalone="no"?>
<!DOCTYPE svg PUBLIC "-//W3C//DTD SVG 20010904//EN"
 "http://www.w3.org/TR/2001/REC-SVG-20010904/DTD/svg10.dtd">
<svg version="1.0" xmlns="http://www.w3.org/2000/svg"
 width="688.000000pt" height="1280.000000pt" viewBox="0 0 688.000000 1280.000000"
 preserveAspectRatio="xMidYMid meet">
<metadata>
Created by potrace 1.15, written by Peter Selinger 2001-2017
</metadata>
<g transform="translate(0.000000,1280.000000) scale(0.100000,-0.100000)"
fill="#FFFFFF" stroke="none">
<path d="M6339 12786 c-19 -8 -68 -35 -109 -61 -88 -56 -137 -75 -199 -75 -41
-1 -48 -4 -66 -33 -18 -28 -57 -50 -127 -71 -9 -3 -36 -41 -60 -85 -40 -73
-45 -79 -70 -74 -47 9 -60 -7 -63 -83 -2 -38 -9 -87 -17 -109 -11 -33 -18 -41
-43 -43 -47 -6 -55 -19 -55 -86 0 -48 -6 -71 -28 -107 -22 -38 -30 -44 -43
-36 -9 5 -28 7 -42 3 -24 -6 -27 -11 -28 -54 0 -26 -5 -72 -10 -102 -13 -75
-12 -71 -4 -112 6 -32 5 -38 -10 -38 -10 0 -31 -14 -48 -31 -27 -28 -29 -36
-24 -83 4 -44 -2 -68 -48 -186 -60 -152 -140 -361 -227 -590 -32 -85 -68 -173
-78 -196 -11 -22 -20 -45 -20 -50 0 -16 -210 -558 -226 -581 -8 -12 -14 -29
-14 -37 0 -20 -208 -558 -221 -571 -5 -5 -9 -16 -9 -25 0 -14 -358 -954 -393
-1032 -9 -18 -20 -49 -26 -68 -6 -19 -31 -84 -54 -145 l-44 -110 -159 3 c-426
9 -777 -85 -1078 -291 -114 -78 -180 -139 -262 -241 -257 -320 -372 -663 -414
-1233 -16 -220 -56 -376 -141 -545 -104 -207 -249 -377 -494 -578 -166 -136
-419 -364 -545 -490 -308 -308 -504 -605 -643 -975 -283 -752 -258 -1382 77
-1958 54 -94 89 -138 193 -247 509 -532 1156 -921 1920 -1155 224 -68 612
-141 781 -146 l47 -2 -40 -7 c-22 -4 -33 -8 -24 -9 9 0 85 -8 170 -18 105 -11
244 -16 434 -17 242 0 300 3 423 22 564 88 944 309 1319 767 131 160 287 484
360 745 61 219 83 381 90 651 10 384 -32 621 -212 1195 -66 211 -91 330 -106
505 -25 289 25 564 151 827 50 104 136 245 195 317 95 117 291 491 348 661 49
148 67 248 67 369 0 163 -20 219 -190 558 -83 163 -164 336 -181 385 -87 249
-273 442 -554 576 -112 54 -394 152 -550 191 -60 16 -114 32 -119 36 -4 4 236
758 534 1676 298 917 560 1722 581 1788 l38 121 136 54 136 55 60 102 c59 99
62 102 92 99 28 -3 33 -8 37 -37 5 -30 1 -37 -28 -57 -39 -28 -51 -55 -44
-100 5 -36 30 -52 81 -52 44 0 114 28 155 62 33 27 37 35 32 61 -11 55 -32 77
-75 77 -34 0 -51 12 -51 34 0 2 24 1 54 -2 64 -5 110 8 166 49 39 28 42 34 37
66 -4 19 -13 46 -22 60 -14 21 -23 24 -55 21 l-39 -3 -11 70 c-6 38 -16 89
-21 113 -8 37 -6 49 13 83 17 30 28 39 49 39 23 0 27 -5 32 -37 4 -23 2 -39
-4 -41 -5 -2 -23 -15 -39 -29 -25 -20 -30 -32 -30 -67 0 -23 5 -47 12 -54 22
-22 119 -14 175 13 70 35 87 56 79 98 -10 54 -29 72 -75 72 -45 0 -42 -7 -61
119 -6 38 -13 73 -16 78 -3 5 1 19 10 32 14 22 13 30 -10 105 -15 49 -35 91
-50 107 -21 20 -25 32 -20 55 5 28 4 29 -32 29 -53 0 -101 28 -137 80 -28 39
-37 45 -71 47 -21 1 -55 -4 -75 -11z m181 -856 c12 0 20 -10 24 -32 6 -29 2
-36 -31 -65 -47 -40 -53 -40 -53 -4 0 17 -4 33 -10 36 -15 9 21 77 38 70 7 -3
22 -5 32 -5z"/>
</g>
</svg>
