<?xml version="1.0" encoding="UTF-8" standalone="no"?>
<svg
   xmlns:dc="http://purl.org/dc/elements/1.1/"
   xmlns:cc="http://creativecommons.org/ns#"
   xmlns:rdf="http://www.w3.org/1999/02/22-rdf-syntax-ns#"
   xmlns:svg="http://www.w3.org/2000/svg"
   xmlns="http://www.w3.org/2000/svg"
   xmlns:sodipodi="http://sodipodi.sourceforge.net/DTD/sodipodi-0.dtd"
   xmlns:inkscape="http://www.inkscape.org/namespaces/inkscape"
   width="200"
   height="200"
   viewBox="0 0 160 160"
   version="1.1"
   id="svg4656"
   sodipodi:docname="uni-lj.svg"
   inkscape:version="0.92.4 5da689c313, 2019-01-14">
  <metadata
     id="metadata4662">
    <rdf:RDF>
      <cc:Work
         rdf:about="">
        <dc:format>image/svg+xml</dc:format>
        <dc:type
           rdf:resource="http://purl.org/dc/dcmitype/StillImage" />
        <dc:title>logos/9</dc:title>
      </cc:Work>
    </rdf:RDF>
  </metadata>
  <defs
     id="defs4660" />
  <sodipodi:namedview
     pagecolor="#ffffff"
     bordercolor="#666666"
     borderopacity="1"
     objecttolerance="10"
     gridtolerance="10"
     guidetolerance="10"
     inkscape:pageopacity="0"
     inkscape:pageshadow="2"
     inkscape:window-width="1920"
     inkscape:window-height="1025"
     id="namedview4658"
     showgrid="false"
     inkscape:zoom="4"
     inkscape:cx="99.828203"
     inkscape:cy="100.08295"
     inkscape:window-x="0"
     inkscape:window-y="27"
     inkscape:window-maximized="1"
     inkscape:current-layer="UL_Lsvg"
     scale-x="0.8" />
  <!-- Generator: Sketch 54 (76480) - https://sketchapp.com -->
  <title
     id="title4610">logos/9</title>
  <desc
     id="desc4612">Created with Sketch.</desc>
  <g
     id="logos/9"
     style="fill:none;fill-rule:evenodd;stroke:none;stroke-width:1"
     transform="translate(-99.115689,30.747785)">
    <g
       id="UL_Lsvg"
       transform="translate(45,10)">
      <rect
         style="opacity:1;fill:#ffffff;fill-opacity:1;stroke:#ffffff;stroke-width:0.97050798;stroke-opacity:1"
         id="rect4664"
         width="159.0295"
         height="159.0295"
         x="54.600945"
         y="-40.262535"
         ry="0" />
      <g
         id="g4652"
         transform="translate(105.93884,-19.029647)">
        <rect
           id="Rectangle"
           x="0.44212162"
           y="54.469387"
           width="52.612476"
           height="52.612476"
           style="fill:#da261b" />
        <path
           d="M 34.662336,30.064271 V 40.719403 H 34.087578 V 30.064271 Z m -4.332792,-0.884243 h 3.492761 v 0.486334 l -3.713821,-0.08842 c -0.39791,-0.972668 -1.856911,-1.724275 -3.581186,-1.724275 -1.63585,0 -3.006427,0.663183 -3.492761,1.547426 0.486334,-0.972668 1.945335,-1.724275 3.713822,-1.724275 1.591638,0 3.006427,0.618971 3.581185,1.503214 z M 26.704147,10.080373 c 0.61897,0 1.149516,0.486334 1.193728,1.105304 h -0.397909 c -0.08842,-0.442121 -0.486334,-0.795818 -0.972668,-0.795818 -0.486334,0 -0.840031,0.309485 -0.972667,0.751606 0.04421,-0.574758 0.530546,-1.061092 1.149516,-1.061092 z m 23.078749,5.172824 h -1.503213 v -0.486334 h 0.972667 l -0.309485,-1.945335 z m 0.221061,4.377004 h -0.486334 v -2.564306 c 0,-0.663182 -0.442121,-1.149516 -1.016879,-1.149516 -0.176849,0 -0.353698,0.04421 -0.486334,0.132636 0.221061,-0.176848 0.486334,-0.265272 0.795819,-0.265272 0.707394,0 1.23794,0.574758 1.23794,1.23794 v 2.608518 z M 48.63338,12.202557 c 0,-0.132636 0.08842,-0.221061 0.221061,-0.221061 0.132636,0 0.221061,0.08843 0.221061,0.221061 0,0.132637 -0.08843,0.221061 -0.221061,0.221061 -0.132637,0 -0.221061,-0.08842 -0.221061,-0.221061 z M 4.863338,15.253197 H 3.3601244 V 14.766863 H 4.332792 L 3.9790947,12.821528 Z m 0.2210608,4.377004 H 4.598065 v -2.564306 c 0,-0.663182 -0.4421216,-1.149516 -1.0168797,-1.149516 -0.1768487,0 -0.3536973,0.04421 -0.4863338,0.132636 0.2210608,-0.176848 0.4863338,-0.265272 0.7958189,-0.265272 0.7073946,0 1.2379406,0.574758 1.2379406,1.23794 v 2.608518 z m -1.370577,-7.427644 c 0,-0.132636 0.088424,-0.221061 0.2210608,-0.221061 0.1326365,0 0.2210608,0.08843 0.2210608,0.221061 0,0.132637 -0.088424,0.221061 -0.2210608,0.221061 -0.088424,0 -0.2210608,-0.08842 -0.2210608,-0.221061 z M 45.317468,27.190481 h -0.442122 v -2.03376 c 0,-0.309485 -0.221061,-0.530546 -0.486334,-0.530546 -0.08842,0 -0.176848,0.04421 -0.22106,0.04421 0.132636,-0.132636 0.309485,-0.176848 0.486333,-0.176848 0.39791,0 0.663183,0.309485 0.663183,0.663182 z m -0.795819,-3.227488 c 0,-0.132637 0.08842,-0.221061 0.221061,-0.221061 0.132636,0 0.221061,0.08842 0.221061,0.221061 0,0.132636 -0.08843,0.221061 -0.221061,0.221061 -0.132637,0 -0.221061,-0.08843 -0.221061,-0.221061 z m -2.65273,3.227488 h -0.442122 v -2.03376 c 0,-0.309485 -0.22106,-0.530546 -0.486333,-0.530546 -0.08843,0 -0.176849,0.04421 -0.221061,0.04421 0.132636,-0.132636 0.309485,-0.176848 0.486334,-0.176848 0.397909,0 0.663182,0.309485 0.663182,0.663182 z M 41.0731,23.962993 c 0,-0.132637 0.08842,-0.221061 0.221061,-0.221061 0.132636,0 0.221061,0.08842 0.221061,0.221061 0,0.132636 -0.08843,0.221061 -0.221061,0.221061 -0.132637,0 -0.221061,-0.08843 -0.221061,-0.221061 z m 2.299033,-1.105304 h -0.39791 v -0.972668 c 0,-0.265273 -0.176848,-0.486334 -0.442121,-0.486334 -0.08843,0 -0.132637,0 -0.221061,0.04421 0.08842,-0.08842 0.265273,-0.176848 0.442121,-0.176848 0.309485,0 0.618971,0.265273 0.618971,0.61897 z m -5.261248,4.332792 h -0.442121 v -2.03376 c 0,-0.309485 -0.221061,-0.530546 -0.486334,-0.530546 -0.08842,0 -0.176849,0.04421 -0.221061,0.04421 0.132636,-0.132636 0.309485,-0.176848 0.486334,-0.176848 0.397909,0 0.663182,0.309485 0.663182,0.663182 z m -0.840031,-3.227488 c 0,-0.132637 0.08842,-0.221061 0.221061,-0.221061 0.132636,0 0.221061,0.08842 0.221061,0.221061 0,0.132636 -0.08843,0.221061 -0.221061,0.221061 -0.08842,0 -0.221061,-0.08843 -0.221061,-0.221061 z m 2.03376,-1.105304 h -0.39791 v -0.972668 c 0,-0.265273 -0.176849,-0.486334 -0.442122,-0.486334 -0.08842,0 -0.132636,0 -0.22106,0.04421 0.08842,-0.08842 0.265273,-0.176848 0.442121,-0.176848 0.309485,0 0.618971,0.265273 0.618971,0.61897 z m -24.581963,0 h -0.39791 v -0.972668 c 0,-0.265273 -0.176849,-0.486334 -0.442122,-0.486334 -0.08842,0 -0.132636,0 -0.22106,0.04421 0.08842,-0.08842 0.265273,-0.176848 0.442121,-0.176848 0.309485,0 0.574758,0.265273 0.574758,0.61897 v 0.972668 z m -3.979095,0 h -0.39791 v -0.972668 c 0,-0.265273 -0.176848,-0.486334 -0.4421213,-0.486334 -0.088424,0 -0.1326365,0 -0.2210608,0.04421 0.088424,-0.08842 0.265273,-0.176848 0.4421221,-0.176848 0.309485,0 0.574758,0.265273 0.574758,0.61897 v 0.972668 z M 9.1519179,27.190481 H 8.7097963 v -2.03376 c 0,-0.309485 -0.2210608,-0.530546 -0.4863338,-0.530546 -0.088424,0 -0.1768487,0.04421 -0.2210608,0.04421 0.1326364,-0.132636 0.3094851,-0.176848 0.4863338,-0.176848 0.3979094,0 0.6631824,0.309485 0.6631824,0.663182 z M 8.356099,23.962993 c 0,-0.132637 0.088424,-0.221061 0.2210608,-0.221061 0.1326365,0 0.2210608,0.08842 0.2210608,0.221061 0,0.132636 -0.088424,0.221061 -0.2210608,0.221061 -0.1326365,0 -0.2210608,-0.08843 -0.2210608,-0.221061 z m 4.553853,3.227488 H 12.46783 v -2.03376 c 0,-0.309485 -0.221061,-0.530546 -0.486334,-0.530546 -0.08842,0 -0.176848,0.04421 -0.22106,0.04421 0.132636,-0.132636 0.309485,-0.176848 0.486333,-0.176848 0.39791,0 0.663183,0.309485 0.663183,0.663182 z m -0.795819,-3.227488 c 0,-0.132637 0.08842,-0.221061 0.221061,-0.221061 0.132636,0 0.221061,0.08842 0.221061,0.221061 0,0.132636 -0.08843,0.221061 -0.221061,0.221061 -0.132637,0 -0.221061,-0.08843 -0.221061,-0.221061 z m 4.200155,3.227488 h -0.442121 v -2.03376 c 0,-0.309485 -0.221061,-0.530546 -0.486334,-0.530546 -0.08842,0 -0.176849,0.04421 -0.221061,0.04421 0.132637,-0.132636 0.309485,-0.176848 0.486334,-0.176848 0.397909,0 0.663182,0.309485 0.663182,0.663182 z M 15.51847,23.962993 c 0,-0.132637 0.08842,-0.221061 0.22106,-0.221061 0.132637,0 0.221061,0.08842 0.221061,0.221061 0,0.132636 -0.08842,0.221061 -0.221061,0.221061 -0.132636,0 -0.22106,-0.08843 -0.22106,-0.221061 z M 4.5096407,40.675191 H 4.0233069 v -3.006427 c 0,-0.309486 -0.2210608,-0.530546 -0.4863338,-0.530546 -0.1326365,0 -0.265273,0.04421 -0.3536973,0.132636 0.1326365,-0.221061 0.3536973,-0.353697 0.5747581,-0.353697 0.3979095,0 0.6631825,0.309485 0.6631825,0.663182 z m 4.0233069,0 H 8.0466138 v -3.006427 c 0,-0.309486 -0.2210608,-0.530546 -0.4863338,-0.530546 -0.1326365,0 -0.265273,0.04421 -0.3536973,0.132636 0.1326365,-0.221061 0.3536973,-0.353697 0.5747581,-0.353697 0.3979095,0 0.6631825,0.309485 0.6631825,0.663182 z m 3.9790944,0 h -0.486333 v -3.006427 c 0,-0.309486 -0.221061,-0.530546 -0.486334,-0.530546 -0.132637,0 -0.265273,0.04421 -0.353698,0.132636 0.132637,-0.221061 0.353698,-0.353697 0.574759,-0.353697 0.397909,0 0.663182,0.309485 0.663182,0.663182 z m 3.979095,0 h -0.486334 v -3.006427 c 0,-0.309486 -0.22106,-0.530546 -0.486333,-0.530546 -0.132637,0 -0.265273,0.04421 -0.353698,0.132636 0.132637,-0.221061 0.353698,-0.353697 0.574758,-0.353697 0.39791,0 0.663183,0.309485 0.663183,0.663182 z m 33.291759,0 h -0.486333 v -3.006427 c 0,-0.309486 -0.221061,-0.530546 -0.486334,-0.530546 -0.132637,0 -0.265273,0.04421 -0.353698,0.132636 0.132637,-0.221061 0.353698,-0.353697 0.574759,-0.353697 0.397909,0 0.663182,0.309485 0.663182,0.663182 z m -3.979094,0 h -0.486334 v -3.006427 c 0,-0.309486 -0.221061,-0.530546 -0.486334,-0.530546 -0.132636,0 -0.265273,0.04421 -0.353697,0.132636 0.132636,-0.221061 0.353697,-0.353697 0.574758,-0.353697 0.397909,0 0.663182,0.309485 0.663182,0.663182 z m -3.979095,0 h -0.486334 v -3.006427 c 0,-0.309486 -0.221061,-0.530546 -0.486334,-0.530546 -0.132636,0 -0.265273,0.04421 -0.353697,0.132636 0.132636,-0.221061 0.353697,-0.353697 0.574758,-0.353697 0.39791,0 0.663183,0.309485 0.663183,0.663182 z m -4.067519,0 h -0.486334 v -3.006427 c 0,-0.309486 -0.221061,-0.530546 -0.486334,-0.530546 -0.132636,0 -0.265273,0.04421 -0.353697,0.132636 0.132636,-0.221061 0.353697,-0.353697 0.574758,-0.353697 0.39791,0 0.663183,0.309485 0.663183,0.663182 z m -15.430045,0 h -0.486334 v -3.006427 c 0,-0.309486 -0.221061,-0.530546 -0.486334,-0.530546 -0.132636,0 -0.265273,0.04421 -0.353697,0.132636 0.132636,-0.221061 0.353697,-0.353697 0.574758,-0.353697 0.397909,0 0.663182,0.309485 0.663182,0.663182 z m 5.217035,0 v -2.962215 c 0,-0.707395 -0.486334,-1.193729 -1.061092,-1.193729 -0.397909,0 -0.751607,0.221061 -0.972668,0.574758 0.176849,-0.486333 0.663183,-0.884243 1.237941,-0.884243 0.751607,0 1.326365,0.61897 1.326365,1.326365 v 3.094851 h -0.530546 z m 4.951762,0 h -0.486333 v -3.006427 c 0,-0.309486 -0.221061,-0.530546 -0.486334,-0.530546 -0.132637,0 -0.265273,0.04421 -0.353698,0.132636 0.132637,-0.221061 0.353698,-0.353697 0.574759,-0.353697 0.397909,0 0.663182,0.309485 0.663182,0.663182 z m -9.991949,11.008828 h -0.530546 v -5.836005 c 0,-0.707395 -0.442121,-1.193729 -0.972667,-1.193729 -0.265273,0 -0.530546,0.132637 -0.707395,0.309486 0.221061,-0.353698 0.574758,-0.574759 0.972668,-0.574759 0.663182,0 1.193728,0.618971 1.193728,1.326365 z m 10.257222,0 H 32.27488 v -5.836005 c 0,-0.707395 -0.442122,-1.193729 -0.972668,-1.193729 -0.265273,0 -0.530546,0.132637 -0.707395,0.309486 0.221061,-0.353698 0.574758,-0.574759 0.972668,-0.574759 0.663182,0 1.193728,0.618971 1.193728,1.326365 z m -4.377004,0 h -0.61897 v -6.189702 c 0,-0.928456 -0.61897,-1.547426 -1.414789,-1.547426 -0.353698,0 -0.663183,0.132636 -0.928456,0.353697 0.309485,-0.397909 0.795819,-0.663182 1.326365,-0.663182 0.928455,0 1.63585,0.751606 1.63585,1.63585 z m 1.061092,-29.356876 0.04421,-0.309485 h 0.663183 l -0.176849,-0.884244 0.530546,1.193729 z m 0.221061,-1.724275 c 0,-0.132636 0.08842,-0.221061 0.221061,-0.221061 0.132636,0 0.221061,0.08843 0.221061,0.221061 0,0.132637 -0.08843,0.221061 -0.221061,0.221061 -0.08842,-0.04421 -0.221061,-0.132636 -0.221061,-0.221061 z M 1.901123,24.537751 H 0.26527298 V 24.095629 H 1.3263649 L 0.88424328,21.133414 Z m 0,4.200155 H 1.4147892 V 25.598843 L 0.17684865,25.112509 H 1.901123 Z m 51.153474,-4.200155 h -1.635851 v -0.442122 h 1.061092 l -0.442121,-2.962215 z m 0,4.200155 h -0.486334 v -3.139063 l -1.237941,-0.486334 h 1.724275 z M 34.662336,24.581963 h -1.193728 v -0.486334 h 0.663182 l -0.353697,-1.945335 z m 0,3.713822 h -0.486333 v -2.65273 l -0.840032,-0.265273 h 1.326365 z M 20.072322,24.581963 h -1.193728 v -0.486334 h 0.663182 l -0.353697,-1.945335 z m 0,3.713822 h -0.486333 v -2.65273 l -0.840032,-0.265273 h 1.326365 z M 49.827109,51.28611 h -0.486334 v -1.901123 l -0.884244,-0.176849 h 1.370578 z m -3.979095,0 H 45.36168 v -1.901123 l -0.884243,-0.176849 h 1.370577 z m -3.979095,0 h -0.486334 v -1.901123 l -0.884243,-0.176849 h 1.370577 z m -4.111731,0 h -0.486334 v -1.901123 l -0.884243,-0.176849 h 1.370577 z m -21.221839,0 h -0.486334 v -1.901123 l -0.884243,-0.176849 h 1.370577 z m -4.023307,0 h -0.486333 v -1.901123 l -0.884244,-0.176849 h 1.370577 z m -3.9790944,0 H 8.0466138 V 49.384987 L 7.1623705,49.208138 h 1.3705771 z m -4.0675191,0 H 3.9790947 V 49.384987 L 3.0948515,49.208138 h 1.370577 z M 49.827109,46.820681 h -0.486334 v -2.608517 l -0.884244,-0.176849 h 1.370578 z m -3.979095,0 H 45.36168 v -2.608517 l -0.884243,-0.176849 h 1.370577 z m -3.979095,0 h -0.486334 v -2.608517 l -0.884243,-0.176849 h 1.370577 z m -4.111731,0 h -0.486334 v -2.608517 l -0.884243,-0.176849 h 1.370577 z m -21.221839,0 h -0.486334 v -2.608517 l -0.884243,-0.176849 h 1.370577 z m -4.023307,0 h -0.486333 v -2.608517 l -0.884244,-0.176849 h 1.370577 z m -3.9790944,0 H 8.0466138 V 44.212164 L 7.1623705,44.035315 h 1.3705771 z m -4.0675191,0 H 3.9790947 V 44.212164 L 3.0948515,44.035315 h 1.370577 z M 49.827109,34.485488 H 49.340775 V 31.87697 l -0.884244,-0.176849 h 1.370578 z m -3.979095,0 H 45.36168 V 31.87697 l -0.884243,-0.176849 h 1.370577 z m -3.979095,0 H 41.382585 V 31.87697 l -0.884243,-0.176849 h 1.370577 z m -4.111731,0 H 37.270854 V 31.87697 l -0.884243,-0.176849 h 1.370577 z m -5.261248,0 H 32.009607 V 31.87697 l -0.884244,-0.176849 h 1.370577 z m -10.213009,0 H 21.796597 V 31.87697 l -0.884244,-0.176849 h 1.370578 z m -5.747582,0 H 16.049015 V 31.87697 l -0.884243,-0.176849 h 1.370577 z m -4.023307,0 H 12.025709 V 31.87697 l -0.884244,-0.176849 h 1.370577 z m -3.9790944,0 H 8.0466138 V 31.87697 L 7.1623705,31.700121 H 8.5329476 Z M 51.551383,42.70895 35.14867,42.134192 H 51.551383 Z M 2.8737907,25.466206 4.4212164,20.381807 H 20.204959 v 0.353698 H 4.6864894 Z M 2.3432447,42.134192 H 17.905926 v 0.39791 z m 15.7837423,9.549827 v -8.532947 h 0.574758 v 8.532947 z M 2.3432447,29.533725 H 17.905926 v 0.39791 z M 18.126987,40.675191 V 30.506393 h 0.574758 V 40.675191 Z M 4.4654285,34.485488 H 3.9790947 V 31.87697 L 3.0948515,31.700121 h 1.370577 z m 18.5248965,-12.158345 0.04421,-0.309485 h 0.663183 l -0.176849,-0.884244 0.530546,1.193729 z m 0.221061,-1.724275 c 0,-0.132636 0.08842,-0.221061 0.221061,-0.221061 0.132636,0 0.221061,0.08843 0.221061,0.221061 0,0.132637 -0.08842,0.221061 -0.221061,0.221061 -0.132637,-0.04421 -0.221061,-0.132636 -0.221061,-0.221061 z m 2.873791,0.353698 0.08842,-0.39791 h 0.840031 l -0.265273,-1.149516 0.663183,1.547426 z m 0.397909,-2.254821 c 0,-0.132636 0.08842,-0.265273 0.265273,-0.265273 0.132637,0 0.265273,0.08843 0.265273,0.265273 0,0.176849 -0.08842,0.265273 -0.265273,0.265273 -0.176849,0 -0.265273,-0.132636 -0.265273,-0.265273 z m -3.094851,4.995975 3.315912,-2.122184 3.404337,2.122184 v 3.404336 H 29.489513 V 23.786144 L 26.659935,21.752385 Z M 50.225018,25.200933 48.63338,20.735505 33.51282,20.381807 h 15.51847 l 1.768486,4.863338 z M 19.40914,42.134192 h 14.457377 v 0.486334 z m 15.253196,9.549827 h -0.574758 v -8.532947 h 0.574758 z M 0.39790947,40.675191 V 30.24112 H 0.70739462 V 40.675191 Z M 21.840809,17.37538 h 9.19613 l 1.768486,7.206583 h -0.486333 l -1.724275,-6.852885 z m 3.094851,-2.652729 h 3.404337 l 2.564305,2.077971 H 30.24112 L 27.9863,14.943711 Z M 26.57151,9.5056152 V 0.13263649 h 0.309486 V 9.5056152 Z m 1.193729,4.6864898 v -1.989548 l -2.608518,-0.486334 h 3.094852 v 2.431669 h -0.486334 z m -2.65273,9.947736 1.591638,-1.193728 1.149516,0.751607 c 0.309485,0.265273 0.574758,0.61897 0.574758,1.061092 v 1.768486 H 27.942087 V 24.7146 c 0,-0.39791 -0.176848,-0.707395 -0.486333,-0.928456 l -0.972668,-0.663182 z m 0.397909,6.897098 c 0.176849,-0.221061 0.663183,-0.574758 1.237941,-0.574758 0.707395,0 1.282153,0.530546 1.282153,0.707394 v 3.271701 h -0.61897 v -3.094852 c 0,-0.176849 -0.39791,-0.61897 -1.061092,-0.61897 -0.309486,0 -0.618971,0.176848 -0.840032,0.309485 z m 11.141466,-1.503214 h 15.562681 v 0.442122 z M 52.435626,42.08998 V 30.506393 h 0.618971 V 42.08998 Z m 0.618971,10.655131 H 34.971822 v -0.486333 h 17.508016 v -9.107706 h 0.618971 v 9.594039 z m -19.232292,0 h -0.707394 v -0.486333 h 0.707394 z m -1.856911,0 H 28.60527 v -0.486333 h 3.360124 z m -4.465428,0 h -4.68649 v -0.486333 h 4.68649 z m -5.836006,0 h -2.65273 v -0.486333 h 2.65273 z m -3.802246,0 H 0.39790947 V 42.620526 h 0.30948515 v 9.638252 H 17.817502 v 0.486333 z"
           id="path4650"
           inkscape:connector-curvature="0"
           style="fill:#000000;fill-rule:nonzero" />
      </g>
    </g>
  </g>
</svg>
